<svg class="lds-spinner" width="100%" height="100%" xmlns="http://www.w3.org/2000/svg" xmlns:xlink="http://www.w3.org/1999/xlink" viewBox="0 0 100 100" preserveAspectRatio="xMidYMid"><g transform="rotate(0 50 50)">
  <rect x="47" y="27" rx="42.77" ry="24.57" width="6" height="6" fill="#030303">
    <animate attributeName="opacity" values="1;0" keyTimes="0;1" dur="3.1s" begin="-2.893333333333333s" repeatCount="indefinite"></animate>
  </rect>
</g><g transform="rotate(24 50 50)">
  <rect x="47" y="27" rx="42.77" ry="24.57" width="6" height="6" fill="#030303">
    <animate attributeName="opacity" values="1;0" keyTimes="0;1" dur="3.1s" begin="-2.686666666666667s" repeatCount="indefinite"></animate>
  </rect>
</g><g transform="rotate(48 50 50)">
  <rect x="47" y="27" rx="42.77" ry="24.57" width="6" height="6" fill="#030303">
    <animate attributeName="opacity" values="1;0" keyTimes="0;1" dur="3.1s" begin="-2.48s" repeatCount="indefinite"></animate>
  </rect>
</g><g transform="rotate(72 50 50)">
  <rect x="47" y="27" rx="42.77" ry="24.57" width="6" height="6" fill="#030303">
    <animate attributeName="opacity" values="1;0" keyTimes="0;1" dur="3.1s" begin="-2.2733333333333334s" repeatCount="indefinite"></animate>
  </rect>
</g><g transform="rotate(96 50 50)">
  <rect x="47" y="27" rx="42.77" ry="24.57" width="6" height="6" fill="#030303">
    <animate attributeName="opacity" values="1;0" keyTimes="0;1" dur="3.1s" begin="-2.066666666666667s" repeatCount="indefinite"></animate>
  </rect>
</g><g transform="rotate(120 50 50)">
  <rect x="47" y="27" rx="42.77" ry="24.57" width="6" height="6" fill="#030303">
    <animate attributeName="opacity" values="1;0" keyTimes="0;1" dur="3.1s" begin="-1.86s" repeatCount="indefinite"></animate>
  </rect>
</g><g transform="rotate(144 50 50)">
  <rect x="47" y="27" rx="42.77" ry="24.57" width="6" height="6" fill="#030303">
    <animate attributeName="opacity" values="1;0" keyTimes="0;1" dur="3.1s" begin="-1.6533333333333333s" repeatCount="indefinite"></animate>
  </rect>
</g><g transform="rotate(168 50 50)">
  <rect x="47" y="27" rx="42.77" ry="24.57" width="6" height="6" fill="#030303">
    <animate attributeName="opacity" values="1;0" keyTimes="0;1" dur="3.1s" begin="-1.4466666666666665s" repeatCount="indefinite"></animate>
  </rect>
</g><g transform="rotate(192 50 50)">
  <rect x="47" y="27" rx="42.77" ry="24.57" width="6" height="6" fill="#030303">
    <animate attributeName="opacity" values="1;0" keyTimes="0;1" dur="3.1s" begin="-1.24s" repeatCount="indefinite"></animate>
  </rect>
</g><g transform="rotate(216 50 50)">
  <rect x="47" y="27" rx="42.77" ry="24.57" width="6" height="6" fill="#030303">
    <animate attributeName="opacity" values="1;0" keyTimes="0;1" dur="3.1s" begin="-1.0333333333333334s" repeatCount="indefinite"></animate>
  </rect>
</g><g transform="rotate(240 50 50)">
  <rect x="47" y="27" rx="42.77" ry="24.57" width="6" height="6" fill="#030303">
    <animate attributeName="opacity" values="1;0" keyTimes="0;1" dur="3.1s" begin="-0.8266666666666667s" repeatCount="indefinite"></animate>
  </rect>
</g><g transform="rotate(264 50 50)">
  <rect x="47" y="27" rx="42.77" ry="24.57" width="6" height="6" fill="#030303">
    <animate attributeName="opacity" values="1;0" keyTimes="0;1" dur="3.1s" begin="-0.62s" repeatCount="indefinite"></animate>
  </rect>
</g><g transform="rotate(288 50 50)">
  <rect x="47" y="27" rx="42.77" ry="24.57" width="6" height="6" fill="#030303">
    <animate attributeName="opacity" values="1;0" keyTimes="0;1" dur="3.1s" begin="-0.41333333333333333s" repeatCount="indefinite"></animate>
  </rect>
</g><g transform="rotate(312 50 50)">
  <rect x="47" y="27" rx="42.77" ry="24.57" width="6" height="6" fill="#030303">
    <animate attributeName="opacity" values="1;0" keyTimes="0;1" dur="3.1s" begin="-0.20666666666666667s" repeatCount="indefinite"></animate>
  </rect>
</g><g transform="rotate(336 50 50)">
  <rect x="47" y="27" rx="42.77" ry="24.57" width="6" height="6" fill="#030303">
    <animate attributeName="opacity" values="1;0" keyTimes="0;1" dur="3.1s" begin="0s" repeatCount="indefinite"></animate>
  </rect>
</g></svg>
